<svg width="48" height="48" viewBox="0 0 48 48" fill="none" xmlns="http://www.w3.org/2000/svg">
<g clip-path="url(#clip0_1283_1127)">
<rect width="48" height="48" rx="24" fill="white"/>
<path d="M23.4643 42.8983C34.1839 42.8983 42.8739 34.2083 42.8739 23.4887C42.8739 12.7691 34.1839 4.0791 23.4643 4.0791C12.7447 4.0791 4.05469 12.7691 4.05469 23.4887C4.05469 34.2083 12.7447 42.8983 23.4643 42.8983Z" fill="#FFEB3B"/>
<path fill-rule="evenodd" clip-rule="evenodd" d="M23.4643 42.8983C12.7516 42.8983 4.05469 34.2014 4.05469 23.4887C4.05469 12.776 12.7516 4.0791 23.4643 4.0791V42.8983Z" fill="#FFF176"/>
<path d="M23.4647 38.7434C31.8892 38.7434 38.7185 31.9141 38.7185 23.4896C38.7185 15.0652 31.8892 8.23584 23.4647 8.23584C15.0403 8.23584 8.21094 15.0652 8.21094 23.4896C8.21094 31.9141 15.0403 38.7434 23.4647 38.7434Z" fill="#FBC02D"/>
<path fill-rule="evenodd" clip-rule="evenodd" d="M23.4641 38.7417C15.0459 38.7417 8.21094 31.9067 8.21094 23.4885C8.21094 15.0703 15.0459 8.23535 23.4641 8.23535V38.7417Z" fill="#FDD835"/>
<path fill-rule="evenodd" clip-rule="evenodd" d="M23.5234 8.24365C29.3061 8.27138 34.9224 11.8317 37.3625 17.1818C38.699 20.1098 39.0608 23.4677 38.4134 26.6121C38.4134 26.6121 38.2498 27.1902 37.9046 27.4633C37.3084 27.9319 36.3171 27.7919 35.886 27.132C35.4617 26.4845 35.818 25.5695 35.9012 24.6933C36.4378 19.0396 32.7194 13.2264 27.038 11.535C22.7249 10.2512 17.7435 11.5072 14.5437 14.7833C10.8545 18.5612 9.90069 24.7737 12.5515 29.5485C14.3968 32.8703 17.8198 35.2674 21.5728 35.8413C23.0424 36.0659 24.5494 36.0257 26.012 35.7263L26.1313 35.7082C26.238 35.6999 26.2657 35.6944 26.3725 35.7013C27.1378 35.747 27.7755 36.5262 27.6619 37.2887C27.5676 37.9237 27.0033 38.3632 26.3351 38.4907C20.5094 39.5985 14.0945 36.999 10.7228 31.879C8.33821 28.2577 7.60481 23.6188 8.77077 19.418C10.5107 13.1474 16.6525 8.33931 23.2781 8.24504C23.3599 8.24504 23.4417 8.24365 23.5234 8.24365Z" fill="#F57F17"/>
<path fill-rule="evenodd" clip-rule="evenodd" d="M23.4763 8.24365V11.04C20.185 11.0678 16.8867 12.3834 14.5437 14.7833C10.8545 18.5612 9.90069 24.7737 12.5515 29.5485C14.3968 32.8703 17.8198 35.2674 21.5728 35.8413C22.2022 35.937 22.8386 35.9855 23.4763 35.9841V38.7417C18.513 38.6904 13.5483 36.1699 10.7228 31.879C8.33821 28.2577 7.60481 23.6188 8.77077 19.418C10.5107 13.1474 16.6525 8.33931 23.2781 8.24504C23.3432 8.24504 23.4098 8.24365 23.4763 8.24365Z" fill="#F9A825"/>
<path d="M23.5233 8.23267C29.3065 8.26041 34.9232 11.8194 37.3628 17.1701C38.6992 20.0993 39.0598 23.4575 38.4136 26.6004C38.4136 26.6004 38.2505 27.1797 37.9045 27.4522C37.3089 27.9206 36.3168 27.7802 35.886 27.121C35.4617 26.4731 35.8191 25.5577 35.9023 24.6814C36.4375 19.0272 32.7202 13.2146 27.0382 11.524C22.7253 10.2398 17.7434 11.4947 14.5434 14.7714C10.8538 18.5507 9.90086 24.7614 12.5526 29.5361C14.3965 32.8585 17.8201 35.2556 21.5733 35.83C23.0419 36.0552 24.5497 36.0144 26.0118 35.7158L26.1309 35.6962C26.2386 35.688 26.2648 35.6831 26.3725 35.6897C27.1378 35.7353 27.7758 36.5154 27.6616 37.2774C27.5686 37.9122 27.004 38.3528 26.3349 38.4784C20.5093 39.5864 14.0946 36.987 10.7233 31.8663C8.33921 28.2453 7.60489 23.606 8.77001 19.4057C10.5112 13.1363 16.6533 8.32894 23.2769 8.2343C23.3601 8.23267 23.4417 8.23267 23.5233 8.23267Z" fill="#263238"/>
<path d="M34.5635 34.5854V30.4248C34.5704 30.1711 34.594 30.1018 34.6411 29.9659C34.8117 29.4779 35.2733 29.105 35.7946 29.0468C35.9444 29.0287 35.9804 29.0384 36.0275 29.0398C36.2799 29.0606 36.3492 29.0884 36.4809 29.1438C36.9356 29.331 37.2725 29.776 37.328 30.2696C37.3363 30.3375 37.3349 30.3555 37.3377 30.4248V34.5854H41.4983C41.5246 34.5868 41.5496 34.5868 41.5759 34.5882C41.8934 34.6145 41.9946 34.6631 42.1693 34.7587C42.9678 35.201 43.1148 36.5264 42.301 37.1045C42.0681 37.2695 41.7825 37.3513 41.4983 37.3596H37.3377V41.5216C37.3072 42.5836 35.9055 43.3405 35.0252 42.5558C34.7742 42.3299 34.6093 42.011 34.5718 41.6769C34.5635 41.6075 34.5649 41.5895 34.5635 41.5216V37.3596H30.4015C30.084 37.3513 29.9787 37.3083 29.7998 37.2224C28.9486 36.812 28.7697 35.4297 29.5988 34.8419C29.8317 34.6769 30.1173 34.5937 30.4015 34.5854H34.5635ZM22.079 16.407V15.1675C22.0901 14.8764 22.115 14.8278 22.1594 14.7031C22.3285 14.2275 22.7736 13.8629 23.2782 13.7936C23.4584 13.7686 23.5028 13.7811 23.561 13.7839C24.2043 13.849 24.7547 14.3482 24.8407 14.9776C24.8518 15.0621 24.8504 15.0829 24.8532 15.1675V16.4042C26.6666 16.7452 28.3386 17.767 28.8751 19.5984C28.9638 19.9048 29.011 20.2237 29.0151 20.544C29.0151 20.544 28.9943 20.9848 28.8266 21.2732C28.4051 21.9983 27.2544 22.173 26.6402 21.5491C26.0219 20.9211 26.5418 19.9298 24.9876 19.3212C24.9433 19.3045 24.8989 19.2879 24.8532 19.2726V22.2368C26.5917 22.5723 28.1902 23.5441 28.7988 25.1967C29.187 26.2546 29.0124 27.4912 28.376 28.4284C27.5955 29.5805 26.2936 30.3112 24.8532 30.5926V31.8112C24.8421 32.162 24.7935 32.2646 24.6979 32.4504C24.2709 33.2753 22.9177 33.4389 22.3341 32.6112C22.2065 32.431 22.122 32.2202 22.0928 32.0012C22.0804 31.9166 22.0831 31.8958 22.079 31.8112V30.5829C21.3137 30.429 20.5775 30.1462 19.9245 29.7303C18.8473 29.0454 17.996 27.9168 17.9239 26.5914C17.874 25.6695 18.7419 24.8169 19.6639 25.0636C20.2586 25.2231 20.6565 25.8109 20.694 26.4473C20.7397 27.11 21.4357 27.458 21.9459 27.6576C21.9902 27.6742 22.0346 27.6909 22.079 27.7061V24.7448C20.2794 24.3982 18.588 23.3625 18.0584 21.5519C17.7104 20.3623 18.0778 19.0203 18.9194 18.09C19.7443 17.1764 20.8894 16.6385 22.079 16.407ZM24.8532 25.1011V27.7227C25.215 27.5938 25.545 27.4094 25.8167 27.1668C26.0565 26.9533 26.2673 26.6663 26.2382 26.3419C26.1744 25.6334 25.4133 25.2924 24.8532 25.1011ZM22.079 19.2574C21.7157 19.3863 21.3872 19.5707 21.1168 19.812C20.8783 20.0241 20.669 20.3069 20.6953 20.6313C20.7522 21.337 21.5105 21.685 22.079 21.8791V19.2574Z" fill="#263238"/>
<path d="M23.5273 4.09075C27.3445 4.10252 31.1608 5.24515 34.3386 7.38721C38.1127 9.92942 40.9462 13.8418 42.1761 18.2338C43.3354 22.3806 43.0549 26.9511 41.4356 30.889C40.8697 32.265 39.17 31.96 38.8061 30.8821C38.5972 30.2593 38.9924 29.5698 39.221 28.9038C41.1453 23.2898 39.8467 16.7067 35.7548 12.2441C32.274 8.4494 26.9512 6.43191 21.806 6.94977C18.9107 7.24205 16.1027 8.30227 13.74 9.9961L13.5575 10.1217C13.2005 10.3139 13.075 10.3178 12.8465 10.3168C11.9127 10.3168 11.133 9.18597 11.6263 8.27285C11.799 7.95115 12.1197 7.74028 12.4345 7.52353C15.6349 5.31576 19.5188 4.11135 23.4223 4.09173C23.4577 4.09173 23.492 4.09075 23.5273 4.09075ZM9.06059 11.3722C10.112 11.4761 10.7034 12.7639 10.0718 13.6211C10.0434 13.6594 10.0159 13.6986 9.98745 13.7369C5.88283 19.4225 5.80534 27.8152 10.2768 33.6244C13.3359 37.5995 18.2526 40.0721 23.2958 40.1271C25.584 40.1516 27.8683 39.7014 29.9878 38.8099L30.1055 38.7667C30.4978 38.6608 30.6204 38.6853 30.843 38.7373C31.9376 38.9942 32.3544 40.8273 30.9843 41.4011C24.9995 43.9021 18.0221 43.194 12.7082 39.6475C7.51584 36.1813 4.1635 30.1063 4.06738 23.7821C4.00363 19.5912 5.3277 15.4111 7.80617 12.0205C7.80617 12.0205 8.37992 11.3663 9.06059 11.3722Z" fill="#263238"/>
</g>
<defs>
<clipPath id="clip0_1283_1127">
<rect width="48" height="48" rx="24" fill="white"/>
</clipPath>
</defs>
</svg>
